<svg width="176" height="43" viewBox="0 0 176 43" fill="none" xmlns="http://www.w3.org/2000/svg">
<path d="M2.34863 34V7.69531H11.5625C14.7542 7.69531 17.1751 8.30957 18.8252 9.53809C20.4753 10.7546 21.3003 12.5431 21.3003 14.9038C21.3003 16.1925 20.9691 17.3307 20.3066 18.3184C19.6442 19.2939 18.7228 20.0106 17.5425 20.4683C18.8914 20.8055 19.9513 21.486 20.7222 22.5098C21.505 23.5335 21.8965 24.7861 21.8965 26.2676C21.8965 28.7969 21.0895 30.7119 19.4756 32.0127C17.8617 33.3135 15.5612 33.9759 12.5742 34H2.34863ZM7.76855 22.5459V29.646H12.4116C13.6883 29.646 14.682 29.3449 15.3926 28.7427C16.1152 28.1284 16.4766 27.2853 16.4766 26.2134C16.4766 23.8045 15.23 22.582 12.7368 22.5459H7.76855ZM7.76855 18.7158H11.7793C14.5133 18.6676 15.8804 17.5776 15.8804 15.4458C15.8804 14.2534 15.5311 13.3983 14.8325 12.8804C14.146 12.3504 13.056 12.0854 11.5625 12.0854H7.76855V18.7158ZM37.3433 32.0127C36.0545 33.5785 34.272 34.3613 31.9956 34.3613C29.8999 34.3613 28.298 33.7591 27.1899 32.5547C26.0939 31.3503 25.5339 29.5858 25.5098 27.2612V14.4521H30.731V27.0806C30.731 29.116 31.6584 30.1338 33.5132 30.1338C35.2837 30.1338 36.5002 29.5195 37.1626 28.291V14.4521H42.4019V34H37.4878L37.3433 32.0127ZM52.3384 29.7905H61.8955V34H45.6719V30.8203L54.8677 18.6797H45.9429V14.4521H61.6064V17.5415L52.3384 29.7905ZM71.1636 29.7905H80.7207V34H64.4971V30.8203L73.6929 18.6797H64.7681V14.4521H80.4316V17.5415L71.1636 29.7905ZM105.905 21.4438C105.905 23.9009 105.508 26.0387 104.713 27.8574C103.918 29.6641 102.816 31.1154 101.407 32.2114L105.779 35.644L102.328 38.6973L96.7275 34.1987C96.0892 34.3071 95.4268 34.3613 94.7402 34.3613C92.5602 34.3613 90.6151 33.8374 88.9048 32.7896C87.1945 31.7417 85.8696 30.2482 84.9302 28.3091C83.9907 26.3579 83.515 24.1177 83.5029 21.5884V20.2876C83.5029 17.6981 83.9666 15.4217 84.894 13.4585C85.8335 11.4832 87.1523 9.97168 88.8506 8.92383C90.5609 7.86393 92.512 7.33398 94.7041 7.33398C96.8962 7.33398 98.8413 7.86393 100.54 8.92383C102.25 9.97168 103.569 11.4832 104.496 13.4585C105.436 15.4217 105.905 17.6921 105.905 20.2695V21.4438ZM100.413 20.2515C100.413 17.4933 99.9193 15.3976 98.9316 13.9644C97.944 12.5311 96.5348 11.8145 94.7041 11.8145C92.8854 11.8145 91.4823 12.5251 90.4946 13.9463C89.507 15.3555 89.0072 17.4271 88.9951 20.1611V21.4438C88.9951 24.1297 89.4889 26.2134 90.4766 27.6948C91.4642 29.1763 92.8854 29.917 94.7402 29.917C96.5589 29.917 97.9561 29.2064 98.9316 27.7852C99.9072 26.3519 100.401 24.2682 100.413 21.5342V20.2515ZM121.244 32.0127C119.955 33.5785 118.172 34.3613 115.896 34.3613C113.8 34.3613 112.198 33.7591 111.09 32.5547C109.994 31.3503 109.434 29.5858 109.41 27.2612V14.4521H114.631V27.0806C114.631 29.116 115.559 30.1338 117.414 30.1338C119.184 30.1338 120.401 29.5195 121.063 28.291V14.4521H126.302V34H121.388L121.244 32.0127ZM135.751 34H130.512V14.4521H135.751V34ZM130.205 9.39355C130.205 8.61068 130.464 7.96631 130.981 7.46045C131.511 6.95459 132.228 6.70166 133.131 6.70166C134.023 6.70166 134.733 6.95459 135.263 7.46045C135.793 7.96631 136.058 8.61068 136.058 9.39355C136.058 10.1885 135.787 10.8389 135.245 11.3447C134.715 11.8506 134.011 12.1035 133.131 12.1035C132.252 12.1035 131.542 11.8506 131 11.3447C130.47 10.8389 130.205 10.1885 130.205 9.39355ZM146.067 29.7905H155.624V34H139.4V30.8203L148.596 18.6797H139.671V14.4521H155.335V17.5415L146.067 29.7905ZM164.892 29.7905H174.449V34H158.226V30.8203L167.421 18.6797H158.497V14.4521H174.16V17.5415L164.892 29.7905Z" fill="white"/>
</svg>
